<mxfile host="app.diagrams.net" modified="2022-05-18T11:03:03.524Z" agent="5.0 (Windows NT 10.0; WOW64) AppleWebKit/537.36 (KHTML, like Gecko) Chrome/101.0.4951.54 Safari/537.36" etag="LMRbyUYbPxznB-1g7GyE" version="18.0.7" type="github">
  <diagram id="KE3Y_JJDXEvooJmlkgoM" name="Page-1">
    <mxGraphModel dx="1397" dy="740" grid="0" gridSize="10" guides="1" tooltips="1" connect="1" arrows="1" fold="1" page="1" pageScale="1" pageWidth="827" pageHeight="1169" math="0" shadow="0">
      <root>
        <mxCell id="0" />
        <mxCell id="1" parent="0" />
        <mxCell id="UL9RxV9l1OQldz9KdJYa-1" value="Start" style="ellipse;whiteSpace=wrap;html=1;" vertex="1" parent="1">
          <mxGeometry x="300" y="40" width="100" height="30" as="geometry" />
        </mxCell>
        <mxCell id="UL9RxV9l1OQldz9KdJYa-2" value="" style="endArrow=classic;html=1;rounded=0;exitX=0.5;exitY=1;exitDx=0;exitDy=0;entryX=0.5;entryY=0;entryDx=0;entryDy=0;" edge="1" parent="1" source="UL9RxV9l1OQldz9KdJYa-1" target="UL9RxV9l1OQldz9KdJYa-3">
          <mxGeometry width="50" height="50" relative="1" as="geometry">
            <mxPoint x="360" y="280" as="sourcePoint" />
            <mxPoint x="350" y="90" as="targetPoint" />
          </mxGeometry>
        </mxCell>
        <mxCell id="UL9RxV9l1OQldz9KdJYa-3" value="RK1 := rd(CK)op" style="shape=parallelogram;perimeter=parallelogramPerimeter;whiteSpace=wrap;html=1;fixedSize=1;" vertex="1" parent="1">
          <mxGeometry x="290" y="90" width="120" height="30" as="geometry" />
        </mxCell>
        <mxCell id="UL9RxV9l1OQldz9KdJYa-5" value="CK := CK + 1" style="rounded=0;whiteSpace=wrap;html=1;" vertex="1" parent="1">
          <mxGeometry x="290" y="140" width="120" height="30" as="geometry" />
        </mxCell>
        <mxCell id="UL9RxV9l1OQldz9KdJYa-6" value="" style="endArrow=classic;html=1;rounded=0;exitX=0.5;exitY=1;exitDx=0;exitDy=0;entryX=0.5;entryY=0;entryDx=0;entryDy=0;" edge="1" parent="1" source="UL9RxV9l1OQldz9KdJYa-3" target="UL9RxV9l1OQldz9KdJYa-5">
          <mxGeometry width="50" height="50" relative="1" as="geometry">
            <mxPoint x="360" y="270" as="sourcePoint" />
            <mxPoint x="410" y="220" as="targetPoint" />
          </mxGeometry>
        </mxCell>
        <mxCell id="UL9RxV9l1OQldz9KdJYa-7" value="RK2 := rd(CK)op" style="shape=parallelogram;perimeter=parallelogramPerimeter;whiteSpace=wrap;html=1;fixedSize=1;" vertex="1" parent="1">
          <mxGeometry x="290" y="190" width="120" height="30" as="geometry" />
        </mxCell>
        <mxCell id="UL9RxV9l1OQldz9KdJYa-8" value="" style="endArrow=classic;html=1;rounded=0;exitX=0.5;exitY=1;exitDx=0;exitDy=0;entryX=0.5;entryY=0;entryDx=0;entryDy=0;" edge="1" parent="1" source="UL9RxV9l1OQldz9KdJYa-5" target="UL9RxV9l1OQldz9KdJYa-7">
          <mxGeometry width="50" height="50" relative="1" as="geometry">
            <mxPoint x="360" y="270" as="sourcePoint" />
            <mxPoint x="410" y="220" as="targetPoint" />
          </mxGeometry>
        </mxCell>
        <mxCell id="UL9RxV9l1OQldz9KdJYa-9" value="CK := CK + 1" style="rounded=0;whiteSpace=wrap;html=1;" vertex="1" parent="1">
          <mxGeometry x="290" y="240" width="120" height="30" as="geometry" />
        </mxCell>
        <mxCell id="UL9RxV9l1OQldz9KdJYa-10" value="" style="endArrow=classic;html=1;rounded=0;exitX=0.5;exitY=1;exitDx=0;exitDy=0;entryX=0.5;entryY=0;entryDx=0;entryDy=0;" edge="1" parent="1" source="UL9RxV9l1OQldz9KdJYa-7" target="UL9RxV9l1OQldz9KdJYa-9">
          <mxGeometry width="50" height="50" relative="1" as="geometry">
            <mxPoint x="360" y="280" as="sourcePoint" />
            <mxPoint x="410" y="230" as="targetPoint" />
          </mxGeometry>
        </mxCell>
        <mxCell id="UL9RxV9l1OQldz9KdJYa-11" value="COP1" style="rhombus;whiteSpace=wrap;html=1;" vertex="1" parent="1">
          <mxGeometry x="290" y="290" width="120" height="50" as="geometry" />
        </mxCell>
        <mxCell id="UL9RxV9l1OQldz9KdJYa-12" value="" style="endArrow=classic;html=1;rounded=0;exitX=0.5;exitY=1;exitDx=0;exitDy=0;entryX=0.5;entryY=0;entryDx=0;entryDy=0;" edge="1" parent="1" source="UL9RxV9l1OQldz9KdJYa-9" target="UL9RxV9l1OQldz9KdJYa-11">
          <mxGeometry width="50" height="50" relative="1" as="geometry">
            <mxPoint x="360" y="360" as="sourcePoint" />
            <mxPoint x="410" y="310" as="targetPoint" />
          </mxGeometry>
        </mxCell>
        <mxCell id="UL9RxV9l1OQldz9KdJYa-13" value="" style="edgeStyle=segmentEdgeStyle;endArrow=classic;html=1;rounded=0;exitX=0.607;exitY=1.15;exitDx=0;exitDy=0;entryX=0.5;entryY=0;entryDx=0;entryDy=0;exitPerimeter=0;" edge="1" parent="1" source="UL9RxV9l1OQldz9KdJYa-30" target="UL9RxV9l1OQldz9KdJYa-16">
          <mxGeometry width="50" height="50" relative="1" as="geometry">
            <mxPoint x="256" y="315" as="sourcePoint" />
            <mxPoint x="176" y="360" as="targetPoint" />
            <Array as="points">
              <mxPoint x="292" y="315" />
              <mxPoint x="216" y="315" />
            </Array>
          </mxGeometry>
        </mxCell>
        <mxCell id="UL9RxV9l1OQldz9KdJYa-15" value="" style="edgeStyle=segmentEdgeStyle;endArrow=classic;html=1;rounded=0;exitX=1;exitY=0.5;exitDx=0;exitDy=0;entryX=0.5;entryY=0;entryDx=0;entryDy=0;" edge="1" parent="1" source="UL9RxV9l1OQldz9KdJYa-11" target="UL9RxV9l1OQldz9KdJYa-17">
          <mxGeometry width="50" height="50" relative="1" as="geometry">
            <mxPoint x="360" y="360" as="sourcePoint" />
            <mxPoint x="590" y="360" as="targetPoint" />
            <Array as="points">
              <mxPoint x="556" y="315" />
            </Array>
          </mxGeometry>
        </mxCell>
        <mxCell id="UL9RxV9l1OQldz9KdJYa-16" value="COP0" style="rhombus;whiteSpace=wrap;html=1;" vertex="1" parent="1">
          <mxGeometry x="156" y="360" width="120" height="50" as="geometry" />
        </mxCell>
        <mxCell id="UL9RxV9l1OQldz9KdJYa-17" value="COP0" style="rhombus;whiteSpace=wrap;html=1;" vertex="1" parent="1">
          <mxGeometry x="496" y="362" width="120" height="50" as="geometry" />
        </mxCell>
        <mxCell id="UL9RxV9l1OQldz9KdJYa-18" value="" style="endArrow=classic;html=1;rounded=0;exitX=0.5;exitY=1;exitDx=0;exitDy=0;entryX=0.5;entryY=0;entryDx=0;entryDy=0;" edge="1" parent="1" source="UL9RxV9l1OQldz9KdJYa-16" target="UL9RxV9l1OQldz9KdJYa-19">
          <mxGeometry width="50" height="50" relative="1" as="geometry">
            <mxPoint x="246" y="470" as="sourcePoint" />
            <mxPoint x="216" y="500" as="targetPoint" />
          </mxGeometry>
        </mxCell>
        <mxCell id="UL9RxV9l1OQldz9KdJYa-19" value="CF" style="rhombus;whiteSpace=wrap;html=1;" vertex="1" parent="1">
          <mxGeometry x="156" y="469" width="120" height="50" as="geometry" />
        </mxCell>
        <mxCell id="UL9RxV9l1OQldz9KdJYa-22" value="CK := CK + OFF" style="rounded=0;whiteSpace=wrap;html=1;" vertex="1" parent="1">
          <mxGeometry x="39" y="599" width="120" height="30" as="geometry" />
        </mxCell>
        <mxCell id="UL9RxV9l1OQldz9KdJYa-23" value="" style="edgeStyle=segmentEdgeStyle;endArrow=classic;html=1;rounded=0;exitX=0;exitY=0.5;exitDx=0;exitDy=0;entryX=0.5;entryY=0;entryDx=0;entryDy=0;" edge="1" parent="1" source="UL9RxV9l1OQldz9KdJYa-16" target="UL9RxV9l1OQldz9KdJYa-22">
          <mxGeometry width="50" height="50" relative="1" as="geometry">
            <mxPoint x="350" y="350" as="sourcePoint" />
            <mxPoint x="400" y="300" as="targetPoint" />
          </mxGeometry>
        </mxCell>
        <mxCell id="UL9RxV9l1OQldz9KdJYa-24" value="" style="endArrow=classic;html=1;rounded=0;exitX=0;exitY=0.5;exitDx=0;exitDy=0;" edge="1" parent="1" source="UL9RxV9l1OQldz9KdJYa-19">
          <mxGeometry width="50" height="50" relative="1" as="geometry">
            <mxPoint x="350" y="319" as="sourcePoint" />
            <mxPoint x="100" y="494" as="targetPoint" />
          </mxGeometry>
        </mxCell>
        <mxCell id="UL9RxV9l1OQldz9KdJYa-26" value="1" style="text;html=1;align=center;verticalAlign=middle;resizable=0;points=[];autosize=1;strokeColor=none;fillColor=none;" vertex="1" parent="1">
          <mxGeometry x="136" y="360" width="20" height="20" as="geometry" />
        </mxCell>
        <mxCell id="UL9RxV9l1OQldz9KdJYa-27" value="0" style="text;html=1;align=center;verticalAlign=middle;resizable=0;points=[];autosize=1;strokeColor=none;fillColor=none;" vertex="1" parent="1">
          <mxGeometry x="216" y="410" width="20" height="20" as="geometry" />
        </mxCell>
        <mxCell id="UL9RxV9l1OQldz9KdJYa-28" value="" style="edgeStyle=segmentEdgeStyle;endArrow=classic;html=1;rounded=0;exitX=0.5;exitY=1;exitDx=0;exitDy=0;" edge="1" parent="1" source="UL9RxV9l1OQldz9KdJYa-19">
          <mxGeometry width="50" height="50" relative="1" as="geometry">
            <mxPoint x="350" y="620" as="sourcePoint" />
            <mxPoint x="100" y="640" as="targetPoint" />
            <Array as="points">
              <mxPoint x="216" y="640" />
            </Array>
          </mxGeometry>
        </mxCell>
        <mxCell id="UL9RxV9l1OQldz9KdJYa-29" value="0" style="text;html=1;align=center;verticalAlign=middle;resizable=0;points=[];autosize=1;strokeColor=none;fillColor=none;" vertex="1" parent="1">
          <mxGeometry x="216" y="550" width="20" height="20" as="geometry" />
        </mxCell>
        <mxCell id="UL9RxV9l1OQldz9KdJYa-30" value="1" style="text;html=1;align=center;verticalAlign=middle;resizable=0;points=[];autosize=1;strokeColor=none;fillColor=none;" vertex="1" parent="1">
          <mxGeometry x="280" y="290" width="20" height="20" as="geometry" />
        </mxCell>
        <mxCell id="UL9RxV9l1OQldz9KdJYa-31" value="0" style="text;html=1;align=center;verticalAlign=middle;resizable=0;points=[];autosize=1;strokeColor=none;fillColor=none;" vertex="1" parent="1">
          <mxGeometry x="404" y="290" width="20" height="20" as="geometry" />
        </mxCell>
        <mxCell id="UL9RxV9l1OQldz9KdJYa-32" value="" style="endArrow=classic;html=1;rounded=0;exitX=0.5;exitY=1;exitDx=0;exitDy=0;entryX=0.5;entryY=0;entryDx=0;entryDy=0;" edge="1" parent="1" source="UL9RxV9l1OQldz9KdJYa-17" target="UL9RxV9l1OQldz9KdJYa-33">
          <mxGeometry width="50" height="50" relative="1" as="geometry">
            <mxPoint x="316" y="622" as="sourcePoint" />
            <mxPoint x="556" y="492" as="targetPoint" />
          </mxGeometry>
        </mxCell>
        <mxCell id="UL9RxV9l1OQldz9KdJYa-33" value="BR1 := rd(R1)rp" style="rounded=0;whiteSpace=wrap;html=1;" vertex="1" parent="1">
          <mxGeometry x="496" y="479" width="120" height="30" as="geometry" />
        </mxCell>
        <mxCell id="UL9RxV9l1OQldz9KdJYa-34" value="BR2 := rd(R2)rp" style="rounded=0;whiteSpace=wrap;html=1;" vertex="1" parent="1">
          <mxGeometry x="496" y="534" width="120" height="30" as="geometry" />
        </mxCell>
        <mxCell id="UL9RxV9l1OQldz9KdJYa-35" value="" style="endArrow=classic;html=1;rounded=0;exitX=0.5;exitY=1;exitDx=0;exitDy=0;entryX=0.5;entryY=0;entryDx=0;entryDy=0;" edge="1" parent="1" source="UL9RxV9l1OQldz9KdJYa-33" target="UL9RxV9l1OQldz9KdJYa-34">
          <mxGeometry width="50" height="50" relative="1" as="geometry">
            <mxPoint x="306" y="589" as="sourcePoint" />
            <mxPoint x="356" y="539" as="targetPoint" />
          </mxGeometry>
        </mxCell>
        <mxCell id="UL9RxV9l1OQldz9KdJYa-36" value="" style="endArrow=classic;html=1;rounded=0;exitX=0.5;exitY=1;exitDx=0;exitDy=0;entryX=0.5;entryY=0;entryDx=0;entryDy=0;" edge="1" parent="1" source="UL9RxV9l1OQldz9KdJYa-34" target="UL9RxV9l1OQldz9KdJYa-37">
          <mxGeometry width="50" height="50" relative="1" as="geometry">
            <mxPoint x="306" y="692" as="sourcePoint" />
            <mxPoint x="556" y="702" as="targetPoint" />
          </mxGeometry>
        </mxCell>
        <mxCell id="UL9RxV9l1OQldz9KdJYa-37" value="АЛУ" style="shape=process;whiteSpace=wrap;html=1;backgroundOutline=1;" vertex="1" parent="1">
          <mxGeometry x="496" y="659" width="120" height="30" as="geometry" />
        </mxCell>
        <mxCell id="UL9RxV9l1OQldz9KdJYa-39" value="wr(R2)rp := RR" style="rounded=0;whiteSpace=wrap;html=1;" vertex="1" parent="1">
          <mxGeometry x="496" y="719" width="120" height="30" as="geometry" />
        </mxCell>
        <mxCell id="UL9RxV9l1OQldz9KdJYa-40" value="" style="endArrow=classic;html=1;rounded=0;exitX=0.5;exitY=1;exitDx=0;exitDy=0;entryX=0.5;entryY=0;entryDx=0;entryDy=0;" edge="1" parent="1" source="UL9RxV9l1OQldz9KdJYa-37" target="UL9RxV9l1OQldz9KdJYa-39">
          <mxGeometry width="50" height="50" relative="1" as="geometry">
            <mxPoint x="306" y="649" as="sourcePoint" />
            <mxPoint x="356" y="599" as="targetPoint" />
          </mxGeometry>
        </mxCell>
        <mxCell id="UL9RxV9l1OQldz9KdJYa-41" value="" style="edgeStyle=segmentEdgeStyle;endArrow=classic;html=1;rounded=0;exitX=0;exitY=0.5;exitDx=0;exitDy=0;entryX=0.5;entryY=0;entryDx=0;entryDy=0;" edge="1" parent="1" source="UL9RxV9l1OQldz9KdJYa-17" target="UL9RxV9l1OQldz9KdJYa-44">
          <mxGeometry width="50" height="50" relative="1" as="geometry">
            <mxPoint x="340" y="500" as="sourcePoint" />
            <mxPoint x="390" y="450" as="targetPoint" />
          </mxGeometry>
        </mxCell>
        <mxCell id="UL9RxV9l1OQldz9KdJYa-42" value="0" style="text;html=1;align=center;verticalAlign=middle;resizable=0;points=[];autosize=1;strokeColor=none;fillColor=none;" vertex="1" parent="1">
          <mxGeometry x="556" y="412" width="20" height="20" as="geometry" />
        </mxCell>
        <mxCell id="UL9RxV9l1OQldz9KdJYa-43" value="1" style="text;html=1;align=center;verticalAlign=middle;resizable=0;points=[];autosize=1;strokeColor=none;fillColor=none;" vertex="1" parent="1">
          <mxGeometry x="476" y="362" width="20" height="20" as="geometry" />
        </mxCell>
        <mxCell id="UL9RxV9l1OQldz9KdJYa-44" value="RK3 := rd(CK)op" style="shape=parallelogram;perimeter=parallelogramPerimeter;whiteSpace=wrap;html=1;fixedSize=1;" vertex="1" parent="1">
          <mxGeometry x="290" y="419" width="120" height="30" as="geometry" />
        </mxCell>
        <mxCell id="UL9RxV9l1OQldz9KdJYa-45" value="CK := CK + 1" style="rounded=0;whiteSpace=wrap;html=1;" vertex="1" parent="1">
          <mxGeometry x="290" y="479" width="120" height="30" as="geometry" />
        </mxCell>
        <mxCell id="UL9RxV9l1OQldz9KdJYa-46" value="" style="endArrow=classic;html=1;rounded=0;exitX=0.5;exitY=1;exitDx=0;exitDy=0;entryX=0.5;entryY=0;entryDx=0;entryDy=0;" edge="1" parent="1" source="UL9RxV9l1OQldz9KdJYa-44" target="UL9RxV9l1OQldz9KdJYa-45">
          <mxGeometry width="50" height="50" relative="1" as="geometry">
            <mxPoint x="300" y="659" as="sourcePoint" />
            <mxPoint x="350" y="609" as="targetPoint" />
          </mxGeometry>
        </mxCell>
        <mxCell id="UL9RxV9l1OQldz9KdJYa-47" value="RIA := rd(rd(RI2)rp)op" style="rounded=0;whiteSpace=wrap;html=1;" vertex="1" parent="1">
          <mxGeometry x="290" y="539" width="120" height="30" as="geometry" />
        </mxCell>
        <mxCell id="UL9RxV9l1OQldz9KdJYa-48" value="wr(RI2)rp := rd(RI2)rp - 1" style="rounded=0;whiteSpace=wrap;html=1;" vertex="1" parent="1">
          <mxGeometry x="282.5" y="599" width="135" height="30" as="geometry" />
        </mxCell>
        <mxCell id="UL9RxV9l1OQldz9KdJYa-49" value="" style="endArrow=classic;html=1;rounded=0;exitX=0.5;exitY=1;exitDx=0;exitDy=0;entryX=0.5;entryY=0;entryDx=0;entryDy=0;" edge="1" parent="1" source="UL9RxV9l1OQldz9KdJYa-45" target="UL9RxV9l1OQldz9KdJYa-47">
          <mxGeometry width="50" height="50" relative="1" as="geometry">
            <mxPoint x="300" y="649" as="sourcePoint" />
            <mxPoint x="350" y="599" as="targetPoint" />
          </mxGeometry>
        </mxCell>
        <mxCell id="UL9RxV9l1OQldz9KdJYa-50" value="" style="endArrow=classic;html=1;rounded=0;exitX=0.5;exitY=1;exitDx=0;exitDy=0;entryX=0.5;entryY=0;entryDx=0;entryDy=0;" edge="1" parent="1" source="UL9RxV9l1OQldz9KdJYa-47" target="UL9RxV9l1OQldz9KdJYa-48">
          <mxGeometry width="50" height="50" relative="1" as="geometry">
            <mxPoint x="300" y="649" as="sourcePoint" />
            <mxPoint x="350" y="599" as="targetPoint" />
          </mxGeometry>
        </mxCell>
        <mxCell id="UL9RxV9l1OQldz9KdJYa-51" value="BR2 := rd(RIA)op" style="rounded=0;whiteSpace=wrap;html=1;" vertex="1" parent="1">
          <mxGeometry x="282.5" y="659" width="135" height="30" as="geometry" />
        </mxCell>
        <mxCell id="UL9RxV9l1OQldz9KdJYa-52" value="" style="endArrow=classic;html=1;rounded=0;exitX=0.5;exitY=1;exitDx=0;exitDy=0;entryX=0.5;entryY=0;entryDx=0;entryDy=0;" edge="1" parent="1" source="UL9RxV9l1OQldz9KdJYa-48" target="UL9RxV9l1OQldz9KdJYa-51">
          <mxGeometry width="50" height="50" relative="1" as="geometry">
            <mxPoint x="300" y="649" as="sourcePoint" />
            <mxPoint x="350" y="599" as="targetPoint" />
          </mxGeometry>
        </mxCell>
        <mxCell id="UL9RxV9l1OQldz9KdJYa-53" value="BR1 := rd(A1)op" style="rounded=0;whiteSpace=wrap;html=1;" vertex="1" parent="1">
          <mxGeometry x="282.5" y="719" width="135" height="30" as="geometry" />
        </mxCell>
        <mxCell id="UL9RxV9l1OQldz9KdJYa-54" value="" style="endArrow=classic;html=1;rounded=0;exitX=0.5;exitY=1;exitDx=0;exitDy=0;entryX=0.5;entryY=0;entryDx=0;entryDy=0;" edge="1" parent="1" source="UL9RxV9l1OQldz9KdJYa-51" target="UL9RxV9l1OQldz9KdJYa-53">
          <mxGeometry width="50" height="50" relative="1" as="geometry">
            <mxPoint x="300" y="649" as="sourcePoint" />
            <mxPoint x="350" y="599" as="targetPoint" />
          </mxGeometry>
        </mxCell>
        <mxCell id="UL9RxV9l1OQldz9KdJYa-55" value="АЛУ" style="shape=process;whiteSpace=wrap;html=1;backgroundOutline=1;" vertex="1" parent="1">
          <mxGeometry x="290" y="779" width="120" height="30" as="geometry" />
        </mxCell>
        <mxCell id="UL9RxV9l1OQldz9KdJYa-56" value="" style="endArrow=classic;html=1;rounded=0;exitX=0.5;exitY=1;exitDx=0;exitDy=0;entryX=0.5;entryY=0;entryDx=0;entryDy=0;" edge="1" parent="1" source="UL9RxV9l1OQldz9KdJYa-53" target="UL9RxV9l1OQldz9KdJYa-55">
          <mxGeometry width="50" height="50" relative="1" as="geometry">
            <mxPoint x="300" y="749" as="sourcePoint" />
            <mxPoint x="350" y="699" as="targetPoint" />
          </mxGeometry>
        </mxCell>
        <mxCell id="UL9RxV9l1OQldz9KdJYa-57" value="wr(A1)op := RR" style="rounded=0;whiteSpace=wrap;html=1;" vertex="1" parent="1">
          <mxGeometry x="282.5" y="839" width="135" height="30" as="geometry" />
        </mxCell>
        <mxCell id="UL9RxV9l1OQldz9KdJYa-58" value="" style="endArrow=classic;html=1;rounded=0;exitX=0.5;exitY=1;exitDx=0;exitDy=0;entryX=0.5;entryY=0;entryDx=0;entryDy=0;" edge="1" parent="1" source="UL9RxV9l1OQldz9KdJYa-55" target="UL9RxV9l1OQldz9KdJYa-57">
          <mxGeometry width="50" height="50" relative="1" as="geometry">
            <mxPoint x="300" y="839" as="sourcePoint" />
            <mxPoint x="350" y="789" as="targetPoint" />
          </mxGeometry>
        </mxCell>
        <mxCell id="UL9RxV9l1OQldz9KdJYa-59" value="END" style="ellipse;whiteSpace=wrap;html=1;" vertex="1" parent="1">
          <mxGeometry x="290" y="915" width="120" height="40" as="geometry" />
        </mxCell>
        <mxCell id="UL9RxV9l1OQldz9KdJYa-60" value="" style="endArrow=classic;html=1;rounded=0;exitX=0.5;exitY=1;exitDx=0;exitDy=0;entryX=0.5;entryY=0;entryDx=0;entryDy=0;" edge="1" parent="1" source="UL9RxV9l1OQldz9KdJYa-57" target="UL9RxV9l1OQldz9KdJYa-59">
          <mxGeometry width="50" height="50" relative="1" as="geometry">
            <mxPoint x="295.5" y="872" as="sourcePoint" />
            <mxPoint x="345.5" y="822" as="targetPoint" />
          </mxGeometry>
        </mxCell>
        <mxCell id="UL9RxV9l1OQldz9KdJYa-63" value="" style="edgeStyle=segmentEdgeStyle;endArrow=classic;html=1;rounded=0;exitX=0.5;exitY=1;exitDx=0;exitDy=0;" edge="1" parent="1" source="UL9RxV9l1OQldz9KdJYa-22">
          <mxGeometry width="50" height="50" relative="1" as="geometry">
            <mxPoint x="311" y="783" as="sourcePoint" />
            <mxPoint x="350" y="893" as="targetPoint" />
            <Array as="points">
              <mxPoint x="100" y="893" />
            </Array>
          </mxGeometry>
        </mxCell>
        <mxCell id="UL9RxV9l1OQldz9KdJYa-65" value="" style="edgeStyle=segmentEdgeStyle;endArrow=classic;html=1;rounded=0;exitX=0.5;exitY=1;exitDx=0;exitDy=0;" edge="1" parent="1" source="UL9RxV9l1OQldz9KdJYa-39">
          <mxGeometry width="50" height="50" relative="1" as="geometry">
            <mxPoint x="521" y="867" as="sourcePoint" />
            <mxPoint x="352" y="897" as="targetPoint" />
            <Array as="points">
              <mxPoint x="556" y="897" />
            </Array>
          </mxGeometry>
        </mxCell>
        <mxCell id="UL9RxV9l1OQldz9KdJYa-66" value="1" style="text;html=1;align=center;verticalAlign=middle;resizable=0;points=[];autosize=1;strokeColor=none;fillColor=none;" vertex="1" parent="1">
          <mxGeometry x="99" y="15" width="17" height="18" as="geometry" />
        </mxCell>
        <mxCell id="UL9RxV9l1OQldz9KdJYa-67" value="2" style="text;html=1;align=center;verticalAlign=middle;resizable=0;points=[];autosize=1;strokeColor=none;fillColor=none;" vertex="1" parent="1">
          <mxGeometry x="203" y="15" width="17" height="18" as="geometry" />
        </mxCell>
        <mxCell id="UL9RxV9l1OQldz9KdJYa-68" value="3" style="text;html=1;align=center;verticalAlign=middle;resizable=0;points=[];autosize=1;strokeColor=none;fillColor=none;" vertex="1" parent="1">
          <mxGeometry x="345" y="15" width="17" height="18" as="geometry" />
        </mxCell>
        <mxCell id="UL9RxV9l1OQldz9KdJYa-69" value="4" style="text;html=1;align=center;verticalAlign=middle;resizable=0;points=[];autosize=1;strokeColor=none;fillColor=none;" vertex="1" parent="1">
          <mxGeometry x="547.5" y="15" width="17" height="18" as="geometry" />
        </mxCell>
        <mxCell id="UL9RxV9l1OQldz9KdJYa-70" value="A" style="text;html=1;align=center;verticalAlign=middle;resizable=0;points=[];autosize=1;strokeColor=none;fillColor=none;" vertex="1" parent="1">
          <mxGeometry x="14" y="46" width="18" height="18" as="geometry" />
        </mxCell>
        <mxCell id="UL9RxV9l1OQldz9KdJYa-71" value="B" style="text;html=1;align=center;verticalAlign=middle;resizable=0;points=[];autosize=1;strokeColor=none;fillColor=none;" vertex="1" parent="1">
          <mxGeometry x="14" y="96" width="18" height="18" as="geometry" />
        </mxCell>
        <mxCell id="UL9RxV9l1OQldz9KdJYa-72" value="C" style="text;html=1;align=center;verticalAlign=middle;resizable=0;points=[];autosize=1;strokeColor=none;fillColor=none;" vertex="1" parent="1">
          <mxGeometry x="14" y="146" width="19" height="18" as="geometry" />
        </mxCell>
        <mxCell id="UL9RxV9l1OQldz9KdJYa-73" value="D" style="text;html=1;align=center;verticalAlign=middle;resizable=0;points=[];autosize=1;strokeColor=none;fillColor=none;" vertex="1" parent="1">
          <mxGeometry x="14" y="196" width="19" height="18" as="geometry" />
        </mxCell>
        <mxCell id="UL9RxV9l1OQldz9KdJYa-74" value="E" style="text;html=1;align=center;verticalAlign=middle;resizable=0;points=[];autosize=1;strokeColor=none;fillColor=none;" vertex="1" parent="1">
          <mxGeometry x="15" y="246" width="18" height="18" as="geometry" />
        </mxCell>
        <mxCell id="UL9RxV9l1OQldz9KdJYa-75" value="F" style="text;html=1;align=center;verticalAlign=middle;resizable=0;points=[];autosize=1;strokeColor=none;fillColor=none;" vertex="1" parent="1">
          <mxGeometry x="16" y="306" width="17" height="18" as="geometry" />
        </mxCell>
        <mxCell id="UL9RxV9l1OQldz9KdJYa-76" value="G" style="text;html=1;align=center;verticalAlign=middle;resizable=0;points=[];autosize=1;strokeColor=none;fillColor=none;" vertex="1" parent="1">
          <mxGeometry x="13.5" y="378" width="19" height="18" as="geometry" />
        </mxCell>
        <mxCell id="UL9RxV9l1OQldz9KdJYa-77" value="H" style="text;html=1;align=center;verticalAlign=middle;resizable=0;points=[];autosize=1;strokeColor=none;fillColor=none;" vertex="1" parent="1">
          <mxGeometry x="13.5" y="425" width="19" height="18" as="geometry" />
        </mxCell>
        <mxCell id="UL9RxV9l1OQldz9KdJYa-78" value="I" style="text;html=1;align=center;verticalAlign=middle;resizable=0;points=[];autosize=1;strokeColor=none;fillColor=none;" vertex="1" parent="1">
          <mxGeometry x="16.5" y="485" width="13" height="18" as="geometry" />
        </mxCell>
        <mxCell id="UL9RxV9l1OQldz9KdJYa-79" value="J" style="text;html=1;align=center;verticalAlign=middle;resizable=0;points=[];autosize=1;strokeColor=none;fillColor=none;" vertex="1" parent="1">
          <mxGeometry x="15.5" y="540" width="16" height="18" as="geometry" />
        </mxCell>
        <mxCell id="UL9RxV9l1OQldz9KdJYa-80" value="K" style="text;html=1;align=center;verticalAlign=middle;resizable=0;points=[];autosize=1;strokeColor=none;fillColor=none;" vertex="1" parent="1">
          <mxGeometry x="13.5" y="605" width="18" height="18" as="geometry" />
        </mxCell>
        <mxCell id="UL9RxV9l1OQldz9KdJYa-81" value="L" style="text;html=1;align=center;verticalAlign=middle;resizable=0;points=[];autosize=1;strokeColor=none;fillColor=none;" vertex="1" parent="1">
          <mxGeometry x="12.5" y="665" width="17" height="18" as="geometry" />
        </mxCell>
        <mxCell id="UL9RxV9l1OQldz9KdJYa-82" value="M" style="text;html=1;align=center;verticalAlign=middle;resizable=0;points=[];autosize=1;strokeColor=none;fillColor=none;" vertex="1" parent="1">
          <mxGeometry x="12" y="725" width="20" height="18" as="geometry" />
        </mxCell>
        <mxCell id="UL9RxV9l1OQldz9KdJYa-83" value="N" style="text;html=1;align=center;verticalAlign=middle;resizable=0;points=[];autosize=1;strokeColor=none;fillColor=none;" vertex="1" parent="1">
          <mxGeometry x="13.5" y="785" width="19" height="18" as="geometry" />
        </mxCell>
        <mxCell id="UL9RxV9l1OQldz9KdJYa-84" value="O" style="text;html=1;align=center;verticalAlign=middle;resizable=0;points=[];autosize=1;strokeColor=none;fillColor=none;" vertex="1" parent="1">
          <mxGeometry x="13" y="845" width="19" height="18" as="geometry" />
        </mxCell>
        <mxCell id="UL9RxV9l1OQldz9KdJYa-85" value="P" style="text;html=1;align=center;verticalAlign=middle;resizable=0;points=[];autosize=1;strokeColor=none;fillColor=none;" vertex="1" parent="1">
          <mxGeometry x="14" y="926" width="18" height="18" as="geometry" />
        </mxCell>
      </root>
    </mxGraphModel>
  </diagram>
</mxfile>
